<mxfile host="app.diagrams.net" modified="2024-08-06T17:54:31.735Z" agent="Mozilla/5.0 (Macintosh; Intel Mac OS X 10_15_7) AppleWebKit/537.36 (KHTML, like Gecko) Chrome/127.0.0.0 Safari/537.36" version="24.6.4" etag="9MAmXLbNQp5M74xtCPEP" type="github">
  <diagram name="Page-1" id="jYGNNeCdieRrT-ScnodA">
    <mxGraphModel>
      <root>
        <mxCell id="0" />
        <mxCell id="1" parent="0" />
      </root>
    </mxGraphModel>
  </diagram>
</mxfile>
